<svg xmlns="http://www.w3.org/2000/svg" width="41" height="41" viewBox="0 0 41 41"><g fill="none" fill-rule="evenodd" stroke="#1476F2" stroke-linecap="round" stroke-width="1.5"><path d="M8.386 30.698L2.795 30.698 2.795 36.279M1.73 27.472C-1.547 20.296-.15 11.583 5.764 5.678c7.612-7.6 20.03-7.556 27.641.043l2.518 2.513" transform="translate(1 1)"/><path d="M37.377 11.625c3.277 7.176 1.882 15.889-4.033 21.794-7.612 7.6-20.03 7.556-27.641-.043l-2.519-2.513M30.749 8.372L36.34 8.372 36.34 2.791" transform="translate(1 1)"/><path d="M32.481 12.092c1.27 2.19 1.995 4.73 1.995 7.442 0 8.22-6.674 14.884-14.909 14.884-3.11 0-5.998-.95-8.387-2.577M6.654 26.978c-1.27-2.19-1.995-4.731-1.995-7.443 0-8.22 6.674-14.883 14.909-14.883 3.11 0 5.997.95 8.387 2.576" transform="translate(1 1)"/><path d="M14.909 15.814L11.181 19.535 14.909 23.256M24.226 15.814L27.954 19.535 24.226 23.256M21.431 13.023L17.704 26.047" transform="translate(1 1)"/></g></svg>