<svg xmlns="http://www.w3.org/2000/svg" width="47" height="41" viewBox="0 0 47 41"><g fill="none" fill-rule="evenodd" stroke="#1476F2" stroke-linecap="round" stroke-width="1.5"><path d="M43.55 32.85H.969c-.535 0-.968-.432-.968-.966V.966C0 .432.433 0 .968 0H43.55c.535 0 .968.432.968.966v30.918c0 .534-.433.966-.968.966zM27.098 34.783L27.098 38.647M18.388 38.647L18.388 34.783M30.969 38.647L14.517 38.647M0 27.053L44.519 27.053M21.292 29.952L24.195 29.952M2.903 3.865L10.646 3.865M6.775 7.729L9.678 7.729M10.646 7.729L22.259 7.729M6.775 11.594L15.485 11.594M16.453 11.594L20.324 11.594M6.775 19.324L9.678 19.324M10.646 19.324L29.034 19.324M6.775 23.188L15.485 23.188M16.453 23.188L20.324 23.188M2.903 15.459L11.614 15.459" transform="translate(1 1)"/></g></svg>