<svg xmlns="http://www.w3.org/2000/svg" width="41" height="42" viewBox="0 0 41 42"><g fill="none" fill-rule="evenodd" stroke="#1476F2" stroke-linecap="round" stroke-width="1.5"><path d="M29.615 0H11.323c-.961 0-1.742.78-1.742 1.74v36.52c0 .96.78 1.74 1.742 1.74h18.292c.961 0 1.742-.78 1.742-1.74V1.74c0-.96-.78-1.74-1.742-1.74zM19.162 37.391L21.775 37.391M13.936 23.478L13.936 31.304M18.291 17.391L18.291 31.304M22.646 26.087L22.646 31.304M27.002 20.87L27.002 31.304M35.712 26.087L35.712 31.304M40.067 19.13L40.067 31.304M.871 26.087L.871 31.304M5.226 17.391L5.226 31.304" transform="translate(0 1)"/></g></svg>