<svg xmlns="http://www.w3.org/2000/svg" width="44" height="42" viewBox="0 0 44 42"><g fill="none" fill-rule="evenodd" stroke="#1476F2" stroke-linecap="round" stroke-width="1.5"><path d="M41.28 18.182c0 2.008-1.63 3.636-3.642 3.636-2.011 0-3.642-1.628-3.642-3.636 0-2.009 1.63-3.637 3.642-3.637s3.643 1.628 3.643 3.637zM41.28 3.636c0 2.009-1.63 3.637-3.642 3.637-2.011 0-3.642-1.628-3.642-3.637 0-2.008 1.63-3.636 3.642-3.636s3.643 1.628 3.643 3.636zM7.285 3.636c0 2.009-1.63 3.637-3.643 3.637C1.631 7.273 0 5.645 0 3.636 0 1.628 1.63 0 3.642 0s3.643 1.628 3.643 3.636zM37.638 7.273L37.563 14.5M33.996 3.636L7.285 3.636M0 21.818c0-2.008 1.63-3.636 3.642-3.636s3.643 1.628 3.643 3.636c0 2.009-1.63 3.637-3.643 3.637C1.631 25.455 0 23.827 0 21.818zM0 36.364c0-2.009 1.63-3.637 3.642-3.637s3.643 1.628 3.643 3.637c0 2.008-1.63 3.636-3.643 3.636C1.631 40 0 38.372 0 36.364zM33.996 36.364c0-2.009 1.63-3.637 3.642-3.637s3.643 1.628 3.643 3.637c0 2.008-1.63 3.636-3.643 3.636-2.011 0-3.642-1.628-3.642-3.636z" transform="translate(1 1)"/><path d="M3.506 25.5L3.642 32.727" transform="translate(1 1) rotate(180 3.574 29.114)"/><path d="M33.996 36.364L7.285 36.364" transform="translate(1 1) rotate(180 20.64 36.364)"/><g><path d="M7.125 9.97c0 1.578 1.28 2.857 2.862 2.857 1.58 0 2.861-1.279 2.861-2.857 0-1.578-1.28-2.857-2.861-2.857-1.581 0-2.862 1.279-2.862 2.857z" transform="translate(1 1) translate(11.018 10)"/><path d="M19.973 7.717L18.916 4.97l-2.623.776c-.484-.72-1.079-1.338-1.754-1.842l.914-2.577L12.759.13l-1.306 2.404c-.827-.164-1.685-.193-2.545-.069L7.73 0 4.978 1.056l.777 2.619c-.722.483-1.34 1.077-1.845 1.751L1.33 4.515l-1.2 2.687 2.409 1.304c-.164.826-.193 1.683-.069 2.541L0 12.223l1.056 2.748 2.625-.776c.482.72 1.078 1.337 1.754 1.84l-.914 2.578 2.693 1.197 1.306-2.403c.827.164 1.686.191 2.545.068l1.178 2.465 2.753-1.055-.778-2.619c.721-.483 1.34-1.077 1.844-1.751l2.582.912 1.199-2.69-2.407-1.303c.163-.825.192-1.682.068-2.54l2.47-1.177z" transform="translate(1 1) translate(11.018 10)"/></g></g></svg>