<svg xmlns="http://www.w3.org/2000/svg" width="48" height="42" viewBox="0 0 48 42"><g fill="none" fill-rule="evenodd" stroke="#1476F2" stroke-linecap="round" stroke-width="1.5"><path d="M35.059 27h4.006c3.873 0 7.012-3.134 7.012-7s-3.14-7-7.012-7c-.744 0-1.46.117-2.133.332.083-.432.13-.876.13-1.333 0-3.866-3.14-7-7.012-7-1.752 0-3.35.646-4.578 1.707C24.105 2.804 20.395 0 16.02 0 10.489 0 6.003 4.478 6.003 10.002c0 1.055.165 2.07.469 3.024C2.852 13.303 0 16.315 0 20c0 3.865 3.14 7 7.012 7h3.005" transform="translate(1 1)"/><path d="M6.47 13.02c.18-.013.36-.02.542-.02 1.36 0 2.628.386 3.703 1.055M25.488 6.7c.255.73.43 1.5.509 2.297M36.935 13.333c-.158.817-.459 1.585-.875 2.274M30.05 40H15.025c-1.66 0-3.005-1.343-3.005-3v-1c0-1.657 1.345-3 3.005-3H30.05c1.66 0 3.005 1.343 3.005 3v1c0 1.657-1.345 3-3.005 3zM30.05 33H15.025c-1.66 0-3.005-1.343-3.005-3v-1c0-1.657 1.345-3 3.005-3H30.05c1.66 0 3.005 1.343 3.005 3v1c0 1.657-1.345 3-3.005 3zM30.05 26H15.025c-1.66 0-3.005-1.343-3.005-3v-1c0-1.657 1.345-3 3.005-3H30.05c1.66 0 3.005 1.343 3.005 3v1c0 1.657-1.345 3-3.005 3z" transform="translate(1 1)"/></g></svg>