<svg xmlns="http://www.w3.org/2000/svg" width="42" height="42" viewBox="0 0 42 42"><g fill="none" fill-rule="evenodd" stroke="#1476F2" stroke-linecap="round" stroke-width="1.5"><path d="M30.44 16.772H9.128V9.963c0-.47.38-.85.852-.85h19.607c.472 0 .853.38.853.85v6.809zM30.44 16.772L30.44 24.432 9.128 24.432 9.128 16.772" transform="translate(1 1)"/><path d="M30.44 24.432v6.808c0 .47-.381.851-.853.851H9.98c-.471 0-.852-.38-.852-.85v-6.81M11.685 13.368L13.39 13.368M11.685 21.027L13.39 21.027M11.685 28.687L13.39 28.687M3.16 18.474V6.56c0-1.88 1.527-3.404 3.41-3.404h13.64" transform="translate(1 1)"/><path d="M17.652.602L20.21 3.155 17.652 5.708M5.718 23.581L3.16 21.027.603 23.581M22.767 3.155H33.85c1.883 0 3.41 1.524 3.41 3.404v13.617M37.26 22.73v11.063c0 1.88-1.527 3.405-3.41 3.405H20.21" transform="translate(1 1)"/><path d="M22.767 34.644L20.21 37.198 22.767 39.751M17.652 37.198H6.57c-1.883 0-3.41-1.525-3.41-3.405V21.027M34.702 17.623L37.26 20.176 39.817 17.623" transform="translate(1 1)"/></g></svg>